# xmcd
#
# Track frame offsets: 
#        150
#        14285
#        31227
#        47434
#        68315
#        79993
#        94676
#        106148
#        125783
#        142866
#        157584
#        169368
#
# Disc length: 2490 seconds
#
# Revision: 0
# Processed by: cddbd v1.5.1PL0 Copyright (c) Steve Scherf et al.
# Submitted via: ExactAudioCopy v0.95a5
#
DISCID=8709b80c
DTITLE=Devil In A Woodpile - In Your Lonesome Town
DYEAR=1900
DGENRE=Country
TTITLE0=A Long Way From Home
TTITLE1=Shake It and Break It
TTITLE2=Until My Love Comes Down
TTITLE3=Bron-Y-Aur Stomp
TTITLE4=Has My Gal Been By Here?
TTITLE5=Beer Ticket Rag
TTITLE6=You Just Well To Let Her Go
TTITLE7=Louisiana Fairytale
TTITLE8=Stovepipe Blues/Greenville Strut
TTITLE9=So Sweet
TTITLE10=I'll Be Rested
TTITLE11=When I'm Drinkin'
EXTD=
EXTT0=
EXTT1=
EXTT2=
EXTT3=
EXTT4=
EXTT5=
EXTT6=
EXTT7=
EXTT8=
EXTT9=
EXTT10=
EXTT11=
PLAYORDER=
